<?xml version="1.0" standalone="no"?><!DOCTYPE svg PUBLIC "-//W3C//DTD SVG 1.1//EN" "http://www.w3.org/Graphics/SVG/1.1/DTD/svg11.dtd"><svg t="1490086507599" class="icon" style="" viewBox="0 0 1024 1024" version="1.1" xmlns="http://www.w3.org/2000/svg" p-id="1060" xmlns:xlink="http://www.w3.org/1999/xlink" width="200" height="200"><defs><style type="text/css"></style></defs><path d="M95.983874 896.021502c-17.717453 0-31.994625-14.277171-31.994625-31.994625L63.989249 415.930119c0-17.717453 14.277171-31.994625 31.994625-31.994625s31.994625 14.277171 31.994625 31.994625l0 447.924744C127.978498 881.744331 113.701327 896.021502 95.983874 896.021502z" p-id="1061"></path><path d="M864.198891 383.935495 674.811356 383.935495c13.761129-31.994625 29.586427-114.733412 20.469679-190.075592C688.056442 133.998992 652.793549 88.071225 601.533345 70.525785c-38.015118-12.901058-78.26642-6.536536-99.940198 15.48127-25.802117 26.318159-37.843104 75.858223-50.744163 128.322526-8.428691 34.230808-17.029397 69.837729-27.866286 88.243239-31.134554 52.980346-96.327902 77.062322-109.400974 81.362674l-89.791366 0c-17.717453 0-31.994625 14.277171-31.994625 31.994625l0 447.924744c0 17.717453 14.277171 31.994625 31.994625 31.994625l86.523098 0c26.834201 14.449185 126.430371 63.989249 241.851839 63.989249l215.877709 0c35.606921 0 96.843944-13.761129 119.721821-51.776247 23.049891-38.531161 71.901898-388.75189 71.901898-427.455065C959.838737 427.283051 907.546447 383.935495 864.198891 383.935495zM833.236351 875.207794c-4.816395 8.084663-36.466991 20.641693-64.84932 20.641693L552.337309 895.849488c-114.217369 0-215.189652-63.989249-216.221737-63.989249l0 0c-4.816395 0-10.148833 0-16.169326 0l-63.989249 0L255.956996 447.924744l63.989249 0c2.580212 0 4.988409-0.860071 7.396607-1.548127 0.516042-0.172014 1.032085 0 1.548127-0.172014 0.172014-0.172014 0.860071-0.344028 1.720141-0.516042 0.860071-0.344028 1.720141-0.344028 2.580212-0.860071 19.437594-6.364522 102.52041-37.327062 145.179909-109.917017 15.48127-26.318159 24.942046-64.84932 34.74685-105.44465 9.116748-37.843104 20.641693-84.974971 34.058794-98.564085 3.096254-2.580212 18.061482-6.020494 36.81102 1.376113 15.309256 6.020494 41.971443 23.049891 47.647909 69.665715 12.55703 102.52041-31.478582 200.052411-31.82261 201.084495-4.644381 9.976818-3.78431 21.157736 2.064169 30.274483 5.84848 9.116748 15.997312 14.449185 26.834201 14.449185l235.315303 0c8.77272 0 31.650596 14.965228 31.650596 32.854695C895.849488 523.438938 846.481438 844.933311 833.236351 875.207794z" p-id="1062"></path></svg>