<?xml version="1.0" standalone="no"?><!DOCTYPE svg PUBLIC "-//W3C//DTD SVG 1.1//EN" "http://www.w3.org/Graphics/SVG/1.1/DTD/svg11.dtd"><svg t="1490086476781" class="icon" style="" viewBox="0 0 1024 1024" version="1.1" xmlns="http://www.w3.org/2000/svg" p-id="946" xmlns:xlink="http://www.w3.org/1999/xlink" width="200" height="200"><defs><style type="text/css"></style></defs><path d="M864.198891 383.935495l-189.215522 0c13.761129-31.994625 29.586427-114.733412 20.297665-189.731564C688.056442 134.171006 652.965564 88.071225 601.705359 70.697799c-38.015118-12.901058-78.26642-6.70855-99.940198 15.48127-25.802117 26.318159-37.843104 75.858223-50.744163 128.322526-8.428691 34.402822-17.029397 69.837729-27.866286 88.243239-31.134554 52.980346-96.67193 81.362674-109.572988 81.362674l-89.619352 0c-17.717453 0-31.994625 14.449185-31.994625 32.166639l0 447.924744c0 17.717453 14.277171 31.994625 31.994625 31.994625l86.523098 0c26.834201 0 126.430371 63.989249 241.851839 63.989249l215.877709 0c35.606921 0 96.843944-13.761129 119.721821-51.776247 23.049891-38.531161 71.901898-388.75189 71.901898-427.455065C959.838737 427.111036 907.546447 383.935495 864.198891 383.935495z" p-id="947"></path><path d="M95.983874 384.107509c-17.717453 0-31.994625 14.277171-31.994625 31.994625l0 447.924744c0 17.717453 14.277171 31.994625 31.994625 31.994625s31.994625-14.277171 31.994625-31.994625L127.978498 416.102133C127.978498 398.38468 113.701327 384.107509 95.983874 384.107509z" p-id="948"></path></svg>