<?xml version="1.0" standalone="no"?><!DOCTYPE svg PUBLIC "-//W3C//DTD SVG 1.1//EN" "http://www.w3.org/Graphics/SVG/1.1/DTD/svg11.dtd"><svg t="1490087302984" class="icon" style="" viewBox="0 0 1024 1024" version="1.1" xmlns="http://www.w3.org/2000/svg" p-id="5697" xmlns:xlink="http://www.w3.org/1999/xlink" width="200" height="200"><defs><style type="text/css"></style></defs><path d="M951.52 493.952l-384-419.424c-8.96-9.696-22.944-12.928-35.2-8.096C520.064 71.232 512 83.072 512 96.224l0 224.896c-149.28 9.44-272.768 85.664-358.592 221.824-68 107.936-88.064 214.688-88.896 219.2-2.464 13.408 3.904 26.912 15.776 33.6 11.872 6.72 26.72 5.152 36.96-3.904C118.848 790.368 274.24 655.264 512 643.84l0 283.904c0 13.152 8.032 24.96 20.288 29.792 3.808 1.504 7.776 2.208 11.712 2.208 8.704 0 17.248-3.552 23.392-10.176l384-412.096C962.816 525.248 962.88 506.272 951.52 493.952z" p-id="5698"></path></svg>