<?xml version="1.0" standalone="no"?><!DOCTYPE svg PUBLIC "-//W3C//DTD SVG 1.1//EN" "http://www.w3.org/Graphics/SVG/1.1/DTD/svg11.dtd"><svg t="1490087306218" class="icon" style="" viewBox="0 0 1024 1024" version="1.1" xmlns="http://www.w3.org/2000/svg" p-id="5817" xmlns:xlink="http://www.w3.org/1999/xlink" width="200" height="200"><defs><style type="text/css"></style></defs><path d="M544 959.744c-3.936 0-7.936-0.704-11.712-2.208C520.032 952.704 512 940.896 512 927.744l0-286.976c-238.56 11.584-392.896 149.28-394.496 150.72-10.176 9.248-25.056 10.976-37.056 4.288-12-6.656-18.4-20.224-15.936-33.728 0.832-4.512 20.896-111.296 88.896-219.2 91.872-145.792 226.912-222.816 390.592-222.816 17.696 0 32 14.336 32 32s-14.304 32-32 32c-238.592 0-346.784 188.384-390.56 303.136C233.152 638.336 369.184 576 544 576c17.696 0 32 14.304 32 32l0 238.464 308.384-330.912L576 181.312 576 224c0 17.664-14.304 32-32 32-17.664 0-32-14.336-32-32L512 99.424c0-13.184 8.064-24.992 20.352-29.792 12.256-4.832 26.208-1.6 35.2 8.096l384 416.224c11.328 12.32 11.296 31.296-0.128 43.52l-384 412.096C561.248 956.192 552.704 959.744 544 959.744z" p-id="5818"></path></svg>