<?xml version="1.0" standalone="no"?><!DOCTYPE svg PUBLIC "-//W3C//DTD SVG 1.1//EN" "http://www.w3.org/Graphics/SVG/1.1/DTD/svg11.dtd"><svg t="1490256932125" class="icon" style="" viewBox="0 0 1024 1024" version="1.1" xmlns="http://www.w3.org/2000/svg" p-id="6893" xmlns:xlink="http://www.w3.org/1999/xlink" width="200" height="200"><defs><style type="text/css"></style></defs><path d="M512 64C264.8 64 64 264.8 64 512s200.8 448 448 448 448-200.8 448-448S759.2 64 512 64z m-32 128h64v384h-64V192z m32 640c-176.8 0-320-143.2-320-320 0-131.2 79.2-244 192-293.6v72C307.2 334.4 256 417.6 256 512c0 140.8 115.2 256 256 256s256-115.2 256-256c0-94.4-51.2-177.6-128-221.6v-72c112.8 49.6 192 162.4 192 293.6 0 176.8-143.2 320-320 320z" p-id="6894" fill="#ffffff"></path></svg>