<?xml version="1.0" standalone="no"?><!DOCTYPE svg PUBLIC "-//W3C//DTD SVG 1.1//EN" "http://www.w3.org/Graphics/SVG/1.1/DTD/svg11.dtd"><svg t="1490086559008" class="icon" style="" viewBox="0 0 1024 1024" version="1.1" xmlns="http://www.w3.org/2000/svg" p-id="2095" xmlns:xlink="http://www.w3.org/1999/xlink" width="200" height="200"><defs><style type="text/css"></style></defs><path d="M511.913993 67.085503C264.90173 67.085503 63.989249 239.443642 63.989249 451.193012c0 116.453553 62.957164 226.026541 174.07828 301.368722l84.1149 51.948261c-3.612296 23.565933-18.749538 74.48211-33.370737 115.93751-4.300353 12.040988-0.860071 25.458088 8.428691 34.230808 6.020494 5.504452 13.761129 8.428691 21.673778 8.428691 4.472367 0 8.77272-0.860071 13.073072-2.752226 36.466991-16.169326 147.416093-68.977658 187.49538-125.398287 243.571981-3.440282 440.356123-174.422308 440.356123-383.935495C960.010751 239.443642 759.09827 67.085503 511.913993 67.085503zM580.203595 543.908618 384.967579 543.908618c-17.717453 0-31.994625-14.277171-31.994625-31.994625s14.277171-31.994625 31.994625-31.994625l195.236015 0c17.717453 0 31.994625 14.277171 31.994625 31.994625S597.921048 543.908618 580.203595 543.908618zM640.924576 415.930119 384.967579 415.930119c-17.717453 0-31.994625-14.277171-31.994625-31.994625s14.277171-31.994625 31.994625-31.994625l255.956996 0c17.717453 0 31.994625 14.277171 31.994625 31.994625C672.9192 401.652948 658.642029 415.930119 640.924576 415.930119z" p-id="2096"></path></svg>