<?xml version="1.0" standalone="no"?><!DOCTYPE svg PUBLIC "-//W3C//DTD SVG 1.1//EN" "http://www.w3.org/Graphics/SVG/1.1/DTD/svg11.dtd"><svg t="1490087295186" class="icon" style="" viewBox="0 0 1024 1024" version="1.1" xmlns="http://www.w3.org/2000/svg" p-id="5457" xmlns:xlink="http://www.w3.org/1999/xlink" width="200" height="200"><defs><style type="text/css"></style></defs><path d="M918.4 314.656l-246.816-241.984C665.504 66.752 657.568 64 648.832 63.552c-8.512 0.096-16.64 3.552-22.56 9.632l-459.2 470.4c-4.416 4.512-7.392 10.272-8.576 16.448L96.544 890.688c-1.984 10.592 1.472 21.44 9.216 28.896C111.808 925.44 119.808 928.608 128 928.608c2.304 0 4.672-0.256 6.976-0.768l292.448-65.216c6.112-1.344 11.712-4.512 16.064-9.024l475.584-493.856C931.232 347.072 930.944 326.944 918.4 314.656zM428.352 803.104c-6.304 6.688-14.784 10.048-23.296 10.048-7.872 0-15.744-2.88-21.952-8.672l-182.112-171.392c-12.864-12.128-13.472-32.384-1.344-45.248s32.352-13.472 45.248-1.376l182.112 171.392C439.872 769.984 440.48 790.208 428.352 803.104z" p-id="5458"></path></svg>